<?xml version="1.0" encoding="utf-8"?>
<svg version="1.1" id="Шар_1" xmlns="http://www.w3.org/2000/svg" xmlns:xlink="http://www.w3.org/1999/xlink" x="0px" y="0px"
	 viewBox="0 0 841.89 595.28" style="enable-background:new 0 0 841.89 595.28;" xml:space="preserve">
<style type="text/css">
	.st0{fill:#750cb4;}
	.st1{fill:#F6F6F6;}
</style>
<g>
	<rect class="st0" width="842" height="595"/>
	<polygon class="st0" points="27.56,-108.1 9.07,-147.12 -6.07,-147.12 20.17,-93.98 20.29,-62.37 34.29,-62.37 34.96,-94.65 
		62.65,-147.12 46.17,-147.12 	"/>
	<polygon class="st0" points="199.08,-79.18 177.25,-147.12 157.68,-147.12 157.68,-62.37 157.68,-61.62 170.83,-61.69 
		170.83,-134.34 193.4,-61.62 205.76,-61.62 230.02,-132.99 228.94,-61.62 241.82,-61.62 241.82,-147.12 222.59,-147.12 	"/>
	<polygon class="st0" points="263.63,-61.62 310.34,-61.62 310.34,-73.3 277.37,-73.3 277.37,-101.04 308.71,-100.71 
		308.71,-112.14 277.37,-111.94 277.37,-136.5 310.34,-136.5 310.34,-147.12 263.63,-147.12 	"/>
	<polygon class="st0" points="385.73,-138.04 385.73,-147.12 352.59,-147.12 352.59,-138.39 362.52,-135.68 362.52,-71.78 
		352.59,-69.69 352.59,-60.94 385.73,-61.62 385.73,-69.18 375.97,-72.46 375.97,-135.68 	"/>
	<path class="st0" d="M121.73-147.12v57.82c0,3.59-0.96,7.15-2.94,10.14c-2.44,3.68-6.81,6.7-14.55,6.7l0,0l0,0
		c-7.73,0-12.11-3.01-14.55-6.7c-1.98-3-2.94-6.55-2.94-10.14v-57.82H72.84l-0.21,61.21c1.2,25.24,26.55,25.78,31.94,25.61
		c5.28,0.17,30.09-0.37,31.29-25.61l-0.21-61.21H121.73z"/>
	<path class="st0" d="M-221.21-211.25c11.6-5.35,21.8-8.55,30.06-9.8c1.35-0.2,11.75-1.52,13.12-1.55c7.11-0.18,4.99-0.32,11.9-0.31
		c2.38,0,4.72-0.21,7.05-0.21c-2.5-0.28-5.01-0.51-7.53-0.68c-20.38-1.34-39.67,1.98-56.77,9c0.07,0.12,0.15,0.23,0.21,0.35
		C-222.51-213.38-221.86-212.32-221.21-211.25z"/>
	<path class="st0" d="M-68.83-114.64C-70.1-62.17-117.52-15.11-176.7-14.22c-5.69,0.09-11.3-0.31-16.8-1.14
		c-12.53-1.9-23.89-8.47-31.52-18.59c-8.91-11.82-14.19-26.52-14.19-42.46c0-15.01,4.69-28.93,12.68-40.38
		c-10.73,12.38-15.92,31.13-15.92,48.8c0,15.25,4.64,28.97,12.61,40.03c-29.75-16.77-51.14-47.08-54.08-80.85
		c-3.32-38.14,14.54-69.67,39.52-88.1c3.18-2.35,6.29-4.51,9.31-6.49c-0.61-1.31-1.3-2.59-2.03-3.79
		c-31.07,19.4-51.34,54.33-51.34,94.81c0,62.08,49.6,112.4,110.78,112.4c0.79,0,1.58-0.01,2.37-0.03c0.72,0.02,1.44,0.03,2.16,0.03
		c1.65,0,3.42-0.17,5.29-0.48c56.58-5.45,100.95-57.41,100.95-116.13c0-13-2.18-21.26-6.18-32.87
		C-70.05-139.56-68.59-124.74-68.83-114.64z"/>
	<path class="st0" d="M-247.66-208.06l2.59-3.89c-0.69-2.77-1.95-8.21-1.73-11.11c0.08-1.05,1.09-1.82,2.1-1.53
		c3.2,0.91,7.43,5.89,9.99,10.05c4.06,6.58,6.79,17.08,3.35,19.77c-0.79,0.62-1.77,0.74-2.56,0.73l54.64,80.35l-49.44-80.49
		c0.17-0.08,0.33-0.17,0.48-0.27c0.66-0.45,1.25-1.06,1.75-1.82l96.91,155.13c-32.51-58.16-65.03-116.32-97.54-174.49
		c-0.15-0.29-0.31-0.57-0.48-0.85c-0.02-0.03-0.03-0.05-0.05-0.08c-0.14-0.24-0.27-0.49-0.41-0.73l0.03,0.09
		c-4.94-8.23-11.14-15.25-15.77-13.53c-0.49,0.14-3.71,1.73-4.14,2.02c-1.05,0.7-1.81,1.8-2.31,3.19c-0.38,0.99-0.59,2.13-0.65,3.42
		c-0.15,2.46,1.02,7.77,1.91,10.81C-248.94-211.25-247.65-208-247.66-208.06z"/>
</g>
<path class="st1" d="M342.75,128.27c1.11,1.82,2.22,3.64,3.33,5.46c19.8-9.14,37.23-14.61,51.34-16.73
	c2.3-0.35,20.07-2.59,22.4-2.65c12.14-0.31,8.52-0.55,20.33-0.53c4.06,0,8.06-0.36,12.04-0.35c-4.27-0.49-8.56-0.87-12.85-1.15
	c-34.8-2.29-67.76,3.38-96.96,15.36C342.51,127.86,342.64,128.06,342.75,128.27z"/>
<g>
	<path class="st1" d="M599.1,239.27c5.15,16.9,7.65,42.21,7.23,59.46c-2.17,89.6-83.15,169.97-184.22,171.49
		c-9.72,0.15-19.3-0.53-28.69-1.95c-21.4-3.24-40.8-14.46-53.83-31.75c-15.22-20.18-24.24-45.3-24.24-72.52
		c0-25.64,8.01-49.41,21.66-68.96c-18.32,21.15-27.19,53.16-27.19,83.34c0,26.04,7.92,49.48,21.54,68.37
		c-50.81-28.63-87.34-80.4-92.35-138.08c-5.66-65.14,24.83-118.99,67.49-150.47c5.43-4.01,10.74-7.7,15.9-11.08
		c-1.04-2.24-2.21-4.43-3.46-6.46c-53.06,33.14-87.68,92.79-87.68,161.93c0,106.02,84.71,191.96,189.2,191.96
		c1.36,0,2.71-0.03,4.06-0.06c1.23,0.03,2.45,0.06,3.69,0.06c2.81,0,5.84-0.29,9.04-0.82c96.63-9.32,172.41-98.05,172.41-198.33
		C609.65,273.22,605.93,259.1,599.1,239.27z"/>
</g>
<path class="st1" d="M334.11,162.4c1.13-0.76,2.13-1.82,3-3.1l165.51,264.95c-55.53-99.33-111.06-198.67-166.59-298
	c-0.26-0.49-0.53-0.98-0.81-1.46c-0.03-0.05-0.05-0.09-0.08-0.14c-0.23-0.42-0.46-0.83-0.7-1.25l0.05,0.16
	c-8.44-14.06-19.03-26.05-26.93-23.12c-0.83,0.24-6.34,2.95-7.07,3.44c-1.79,1.2-3.09,3.08-3.94,5.45c-0.64,1.69-1.01,3.63-1.1,5.84
	c-0.25,4.2,1.74,13.27,3.26,18.46c0.03,0.09,2.22,5.65,2.21,5.53l4.43-6.64c-1.18-4.73-3.33-14.03-2.95-18.97
	c0.14-1.79,1.86-3.1,3.59-2.61c5.46,1.55,12.69,10.06,17.07,17.16c6.93,11.23,11.59,29.17,5.73,33.76
	c-1.35,1.06-3.02,1.27-4.37,1.25l93.33,137.22l-84.43-137.46C333.58,162.73,333.86,162.58,334.11,162.4z"/>
</svg>