<svg xmlns="http://www.w3.org/2000/svg" viewBox="300 80 350 580">
  <g transform="scale(1.2) translate(-80, -30)">
    <path fill="#750cb4" stroke="#750cb4" stroke-width="8" d="M342.75,128.27c1.11,1.82,2.22,3.64,3.33,5.46c19.8-9.14,37.23-14.61,51.34-16.73
      c2.3-0.35,20.07-2.59,22.4-2.65c12.14-0.31,8.52-0.55,20.33-0.53c4.06,0,8.06-0.36,12.04-0.35c-4.27-0.49-8.56-0.87-12.85-1.15
      c-34.8-2.29-67.76,3.38-96.96,15.36C342.51,127.86,342.64,128.06,342.75,128.27z"/>
    <path fill="#750cb4" stroke="#750cb4" stroke-width="8" d="M599.1,239.27c5.15,16.9,7.65,42.21,7.23,59.46c-2.17,89.6-83.15,169.97-184.22,171.49
      c-9.72,0.15-19.3-0.53-28.69-1.95c-21.4-3.24-40.8-14.46-53.83-31.75c-15.22-20.18-24.24-45.3-24.24-72.52
      c0-25.64,8.01-49.41,21.66-68.96c-18.32,21.15-27.19,53.16-27.19,83.34c0,26.04,7.92,49.48,21.54,68.37
      c-50.81-28.63-87.34-80.4-92.35-138.08c-5.66-65.14,24.83-118.99,67.49-150.47c5.43-4.01,10.74-7.7,15.9-11.08
      c-1.04-2.24-2.21-4.43-3.46-6.46c-53.06,33.14-87.68,92.79-87.68,161.93c0,106.02,84.71,191.96,189.2,191.96
      c1.36,0,2.71-0.03,4.06-0.06c1.23,0.03,2.45,0.06,3.69,0.06c2.81,0,5.84-0.29,9.04-0.82c96.63-9.32,172.41-98.05,172.41-198.33
      C609.65,273.22,605.93,259.1,599.1,239.27z"/>
    <path fill="#750cb4" stroke="#750cb4" stroke-width="8" d="M334.11,162.4c1.13-0.76,2.13-1.82,3-3.1l165.51,264.95c-55.53-99.33-111.06-198.67-166.59-298
      c-0.26-0.49-0.53-0.98-0.81-1.46c-0.03-0.05-0.05-0.09-0.08-0.14c-0.23-0.42-0.46-0.83-0.7-1.25l0.05,0.16
      c-8.44-14.06-19.03-26.05-26.93-23.12c-0.83,0.24-6.34,2.95-7.07,3.44c-1.79,1.2-3.09,3.08-3.94,5.45c-0.64,1.69-1.01,3.63-1.1,5.84
      c-0.25,4.2,1.74,13.27,3.26,18.46c0.03,0.09,2.22,5.65,2.21,5.53l4.43-6.64c-1.18-4.73-3.33-14.03-2.95-18.97
      c0.14-1.79,1.86-3.1,3.59-2.61c5.46,1.55,12.69,10.06,17.07,17.16c6.93,11.23,11.59,29.17,5.73,33.76
      c-1.35,1.06-3.02,1.27-4.37,1.25l93.33,137.22l-84.43-137.46C333.58,162.73,333.86,162.58,334.11,162.4z"/>
  </g>
</svg>